# xmcd
#
# Track frame offsets:
#	150
#	15894
#	31240
#	43357
#	61114
#	80253
#	96430
#	112773
#	128157
#	154656
#	171190
#
# Disc length: 2518 seconds
#
# Revision: 1
# Processed by: cddbd v1.5.2PL0 Copyright (c) Steve Scherf et al.
# Submitted via: audiograbber 1.83.01
#
DISCID=7b09d40b
DTITLE=The Martin Harley Band - Grow Your Own
DYEAR=2008
DGENRE=Blues
TTITLE0=One For The Road
TTITLE1=When I Go
TTITLE2=Grow Your Own
TTITLE3=Amelie
TTITLE4=Nobodies Fault But Mine
TTITLE5=A Thousand Miles of Sky
TTITLE6=Stone Cold Believer
TTITLE7=How Long
TTITLE8=Blues At My Window....Slight Return
TTITLE9=Sail On
TTITLE10=End of The World
EXTD=
EXTT0=
EXTT1=
EXTT2=
EXTT3=
EXTT4=
EXTT5=
EXTT6=
EXTT7=
EXTT8=
EXTT9=
EXTT10=
PLAYORDER=
